<?xml version="1.0" encoding="UTF-8" standalone="no"?>
<!DOCTYPE svg PUBLIC "-//W3C//DTD SVG 1.1//EN" "http://www.w3.org/Graphics/SVG/1.1/DTD/svg11.dtd">
<svg width="100%" height="100%" viewBox="0 0 608 197" version="1.1" xmlns="http://www.w3.org/2000/svg" xmlns:xlink="http://www.w3.org/1999/xlink" xml:space="preserve" xmlns:serif="http://www.serif.com/" style="fill-rule:evenodd;clip-rule:evenodd;stroke-linejoin:round;stroke-miterlimit:2;">
    <g transform="matrix(1.84509,0,0,1.84526,-95.8737,-365.961)">
        <clipPath id="_clip1">
            <path d="M111.868,251.766C111.868,259.406 111.153,266.004 109.723,271.559C108.293,277.113 106.454,281.848 104.204,285.762C101.954,289.676 99.422,292.852 96.61,295.289C93.797,297.727 90.985,299.613 88.172,300.949C85.36,302.285 82.711,303.199 80.227,303.691C77.743,304.184 75.704,304.43 74.11,304.43C73.735,304.43 72.903,304.406 71.614,304.359C70.325,304.312 68.743,304.207 66.868,304.043C64.993,303.879 62.872,303.633 60.504,303.305C58.137,302.977 55.665,302.508 53.086,301.898C53.133,292.617 53.192,284.566 53.262,277.746C53.332,270.926 53.391,265.055 53.438,260.133C53.485,255.211 53.532,251.086 53.579,247.758C53.625,244.43 53.661,241.57 53.684,239.18C53.707,236.789 53.731,234.738 53.754,233.027C53.778,231.316 53.79,229.641 53.79,228C53.79,225.422 53.766,222.762 53.719,220.02C53.672,217.277 53.579,214.617 53.438,212.039C53.297,209.461 53.11,207.047 52.875,204.797C52.641,202.547 52.336,200.625 51.961,199.031C55.618,198.797 58.957,198.645 61.981,198.574C65.004,198.504 67.618,198.469 69.821,198.469C75.352,198.469 80.227,199.137 84.446,200.473C88.665,201.809 92.332,203.66 95.45,206.027C98.567,208.395 101.168,211.23 103.254,214.535C105.34,217.84 107.028,221.461 108.317,225.398C109.606,229.336 110.52,233.543 111.059,238.02C111.598,242.496 111.868,247.078 111.868,251.766ZM93.586,249.586C93.586,241.289 93.2,234.527 92.426,229.301C91.653,224.074 90.411,220.008 88.7,217.102C86.989,214.195 84.762,212.215 82.02,211.16C79.278,210.105 75.961,209.578 72.071,209.578L69.961,209.578L70.805,292.195C71.743,292.57 72.622,292.816 73.442,292.934C74.262,293.051 75.071,293.109 75.868,293.109C79.008,293.109 81.692,292.371 83.918,290.895C86.145,289.418 87.973,286.98 89.403,283.582C90.832,280.184 91.887,275.707 92.567,270.152C93.247,264.598 93.586,257.742 93.586,249.586ZM170.438,301.617C166.641,301.523 163.114,301.465 159.856,301.441C156.598,301.418 153.516,301.406 150.61,301.406C144.938,301.406 140.192,301.465 136.372,301.582C132.551,301.699 129.446,301.805 127.055,301.898C124.243,302.039 122.016,302.18 120.375,302.32C120.704,299.18 120.997,296.016 121.254,292.828C121.512,289.641 121.735,286.5 121.922,283.406C122.11,280.313 122.274,277.336 122.415,274.477C122.555,271.617 122.672,268.922 122.766,266.391C122.954,260.484 123.071,254.836 123.118,249.445C123.071,243.82 122.954,238.055 122.766,232.148C122.672,229.617 122.555,226.957 122.415,224.168C122.274,221.379 122.11,218.531 121.922,215.625C121.735,212.719 121.512,209.801 121.254,206.871C120.997,203.941 120.704,201.094 120.375,198.328C126.235,198.562 131.473,198.738 136.09,198.855C140.707,198.973 144.821,199.031 148.43,199.031C151.993,199.031 155.063,198.996 157.641,198.926C160.219,198.855 162.329,198.773 163.969,198.68C165.891,198.586 167.485,198.469 168.75,198.328C168.75,198.281 168.75,198.703 168.75,199.594C168.75,200.484 168.774,201.656 168.821,203.109C168.868,204.562 168.95,206.203 169.067,208.031C169.184,209.859 169.36,211.711 169.594,213.586C164.157,213.07 159.399,212.73 155.321,212.566C151.243,212.402 147.75,212.32 144.844,212.32L141.645,212.32C140.731,212.32 139.875,212.367 139.079,212.461C138.985,217.664 138.915,222.551 138.868,227.121C138.821,231.691 138.797,236.016 138.797,240.094C142.079,240 145.008,239.871 147.586,239.707C150.165,239.543 152.368,239.344 154.196,239.109C156.305,238.875 158.18,238.617 159.821,238.336C159.774,238.664 159.75,239.039 159.75,239.461C159.704,239.836 159.68,240.281 159.68,240.797L159.68,242.555C159.68,244.055 159.727,245.848 159.821,247.934C159.915,250.02 160.102,252.258 160.383,254.648C155.321,253.992 150.961,253.582 147.305,253.418C143.649,253.254 140.813,253.172 138.797,253.172C138.797,258.047 138.821,262.395 138.868,266.215C138.915,270.035 138.973,273.398 139.043,276.305C139.114,279.211 139.184,281.695 139.254,283.758C139.325,285.82 139.407,287.531 139.5,288.891C144.282,288.797 148.547,288.562 152.297,288.188C156.047,287.812 159.211,287.426 161.79,287.027C164.368,286.629 166.336,286.266 167.696,285.938C169.055,285.609 169.735,285.398 169.735,285.305C169.688,285.539 169.665,285.797 169.665,286.078C169.618,286.312 169.594,286.617 169.594,286.992L169.594,288.328C169.594,289.641 169.641,291.398 169.735,293.602C169.829,295.805 170.063,298.477 170.438,301.617ZM234.844,230.602C234.797,236.742 233.637,242.168 231.364,246.879C229.09,251.59 226.137,255.539 222.504,258.727C218.872,261.914 214.829,264.328 210.375,265.969C205.922,267.609 201.493,268.43 197.086,268.43L195.68,268.43C195.68,270.398 195.692,272.73 195.715,275.426C195.739,278.121 195.797,281.051 195.891,284.215C195.985,287.379 196.114,290.684 196.278,294.129C196.442,297.574 196.665,301.008 196.946,304.43C194.18,304.148 191.649,303.961 189.352,303.867C187.055,303.773 185.04,303.727 183.305,303.727C182.368,303.727 181.547,303.738 180.844,303.762C180.141,303.785 179.555,303.797 179.086,303.797C178.524,303.844 178.055,303.867 177.68,303.867C177.915,300.211 178.125,296.543 178.313,292.863C178.5,289.184 178.665,285.574 178.805,282.035C178.946,278.496 179.051,275.086 179.122,271.805C179.192,268.523 179.274,265.43 179.368,262.523C179.508,255.773 179.602,249.305 179.649,243.117C179.649,237.164 179.602,231.469 179.508,226.031C179.461,223.734 179.415,221.367 179.368,218.93C179.321,216.492 179.262,214.125 179.192,211.828C179.122,209.531 179.051,207.387 178.981,205.395C178.911,203.402 178.805,201.68 178.665,200.227C182.274,199.57 185.801,199.16 189.247,198.996C192.692,198.832 195.54,198.75 197.79,198.75C199.524,198.75 201.657,198.82 204.188,198.961C206.719,199.102 209.356,199.488 212.098,200.121C214.84,200.754 217.571,201.738 220.29,203.074C223.008,204.41 225.446,206.25 227.602,208.594C229.758,210.937 231.504,213.902 232.84,217.488C234.176,221.074 234.844,225.445 234.844,230.602ZM216.704,231.164C216.704,227.602 216.305,224.543 215.508,221.988C214.711,219.434 213.504,217.336 211.887,215.695C210.27,214.055 208.207,212.813 205.7,211.969C203.192,211.125 200.227,210.609 196.805,210.422C196.618,214.547 196.465,218.883 196.348,223.43C196.231,227.977 196.125,232.395 196.032,236.684C195.938,240.973 195.868,244.957 195.821,248.637C195.774,252.316 195.727,255.328 195.68,257.672C199.196,257.484 202.266,256.711 204.891,255.352C207.516,253.992 209.707,252.164 211.465,249.867C213.223,247.57 214.536,244.84 215.403,241.676C216.27,238.512 216.704,235.008 216.704,231.164ZM291.094,301.617C287.297,301.523 283.77,301.465 280.512,301.441C277.254,301.418 274.172,301.406 271.266,301.406C265.594,301.406 260.848,301.465 257.028,301.582C253.207,301.699 250.102,301.805 247.711,301.898C244.899,302.039 242.672,302.18 241.032,302.32C241.36,299.18 241.653,296.016 241.911,292.828C242.168,289.641 242.391,286.5 242.579,283.406C242.766,280.313 242.93,277.336 243.071,274.477C243.211,271.617 243.329,268.922 243.422,266.391C243.61,260.484 243.727,254.836 243.774,249.445C243.727,243.82 243.61,238.055 243.422,232.148C243.329,229.617 243.211,226.957 243.071,224.168C242.93,221.379 242.766,218.531 242.579,215.625C242.391,212.719 242.168,209.801 241.911,206.871C241.653,203.941 241.36,201.094 241.032,198.328C246.891,198.562 252.129,198.738 256.747,198.855C261.364,198.973 265.477,199.031 269.086,199.031C272.649,199.031 275.719,198.996 278.297,198.926C280.875,198.855 282.985,198.773 284.625,198.68C286.547,198.586 288.141,198.469 289.407,198.328C289.407,198.281 289.407,198.703 289.407,199.594C289.407,200.484 289.43,201.656 289.477,203.109C289.524,204.562 289.606,206.203 289.723,208.031C289.84,209.859 290.016,211.711 290.25,213.586C284.813,213.07 280.055,212.73 275.977,212.566C271.899,212.402 268.407,212.32 265.5,212.32L262.301,212.32C261.387,212.32 260.532,212.367 259.735,212.461C259.641,217.664 259.571,222.551 259.524,227.121C259.477,231.691 259.454,236.016 259.454,240.094C262.735,240 265.665,239.871 268.243,239.707C270.821,239.543 273.024,239.344 274.852,239.109C276.961,238.875 278.836,238.617 280.477,238.336C280.43,238.664 280.407,239.039 280.407,239.461C280.36,239.836 280.336,240.281 280.336,240.797L280.336,242.555C280.336,244.055 280.383,245.848 280.477,247.934C280.571,250.02 280.758,252.258 281.04,254.648C275.977,253.992 271.618,253.582 267.961,253.418C264.305,253.254 261.469,253.172 259.454,253.172C259.454,258.047 259.477,262.395 259.524,266.215C259.571,270.035 259.629,273.398 259.7,276.305C259.77,279.211 259.84,281.695 259.911,283.758C259.981,285.82 260.063,287.531 260.157,288.891C264.938,288.797 269.204,288.562 272.954,288.188C276.704,287.812 279.868,287.426 282.446,287.027C285.024,286.629 286.993,286.266 288.352,285.938C289.711,285.609 290.391,285.398 290.391,285.305C290.344,285.539 290.321,285.797 290.321,286.078C290.274,286.312 290.25,286.617 290.25,286.992L290.25,288.328C290.25,289.641 290.297,291.398 290.391,293.602C290.485,295.805 290.719,298.477 291.094,301.617ZM379.125,199.945C379.547,205.523 379.922,211.383 380.25,217.523C380.391,220.148 380.532,222.961 380.672,225.961C380.813,228.961 380.93,232.09 381.024,235.348C381.118,238.605 381.2,241.934 381.27,245.332C381.34,248.73 381.375,252.117 381.375,255.492C381.375,262.102 380.954,268.383 380.11,274.336C379.266,280.289 377.883,285.539 375.961,290.086C374.04,294.633 371.508,298.242 368.368,300.914C365.227,303.586 361.36,304.922 356.766,304.922C356.672,304.922 356.262,304.898 355.536,304.852C354.809,304.805 353.883,304.641 352.758,304.359C351.633,304.078 350.379,303.633 348.997,303.023C347.614,302.414 346.219,301.547 344.813,300.422C343.407,299.297 342.071,297.855 340.805,296.098C339.54,294.34 338.485,292.195 337.641,289.664C336.657,292.055 335.485,294.047 334.125,295.641C332.766,297.234 331.36,298.559 329.907,299.613C328.454,300.668 326.989,301.477 325.512,302.039C324.036,302.602 322.711,303 321.54,303.234C320.368,303.469 319.383,303.609 318.586,303.656C317.79,303.703 317.321,303.727 317.18,303.727C314.368,303.727 311.965,303.082 309.973,301.793C307.981,300.504 306.293,298.723 304.911,296.449C303.528,294.176 302.438,291.504 301.641,288.434C300.844,285.363 300.223,282.035 299.778,278.449C299.332,274.863 299.051,271.102 298.934,267.164C298.817,263.227 298.758,259.289 298.758,255.352C298.758,251.789 298.782,248.238 298.829,244.699C298.875,241.16 298.934,237.727 299.004,234.398C299.075,231.07 299.168,227.871 299.286,224.801C299.403,221.73 299.508,218.883 299.602,216.258C299.836,210.07 300.118,204.234 300.446,198.75L321.047,199.313C320.157,204.75 319.36,210.469 318.657,216.469C318.375,219.047 318.094,221.813 317.813,224.766C317.532,227.719 317.286,230.801 317.075,234.012C316.864,237.223 316.688,240.527 316.547,243.926C316.407,247.324 316.336,250.711 316.336,254.086C316.336,256.664 316.348,259.266 316.372,261.891C316.395,264.516 316.465,267.059 316.582,269.52C316.7,271.98 316.875,274.277 317.11,276.41C317.344,278.543 317.684,280.418 318.129,282.035C318.575,283.652 319.137,284.918 319.817,285.832C320.497,286.746 321.352,287.203 322.383,287.203C323.368,287.203 324.293,286.594 325.161,285.375C326.028,284.156 326.801,282.551 327.481,280.559C328.161,278.566 328.77,276.316 329.309,273.809C329.848,271.301 330.293,268.77 330.645,266.215C330.997,263.66 331.266,261.188 331.454,258.797C331.641,256.406 331.735,254.344 331.735,252.609C331.735,252.047 331.758,251.32 331.805,250.43C331.805,249.633 331.817,248.613 331.84,247.371C331.864,246.129 331.875,244.617 331.875,242.836C331.875,239.273 331.829,234.457 331.735,228.387C331.641,222.316 331.5,214.711 331.313,205.57L349.172,206.273C348.75,213.82 348.399,220.242 348.118,225.539C347.836,230.836 347.602,235.254 347.415,238.793C347.227,242.332 347.098,245.168 347.028,247.301C346.957,249.434 346.911,251.121 346.887,252.363C346.864,253.605 346.852,254.543 346.852,255.176L346.852,256.969C346.852,258.984 346.934,261.152 347.098,263.473C347.262,265.793 347.52,268.102 347.872,270.398C348.223,272.695 348.668,274.91 349.207,277.043C349.747,279.176 350.356,281.051 351.036,282.668C351.715,284.285 352.489,285.586 353.356,286.57C354.223,287.555 355.172,288.047 356.204,288.047C357.797,288.047 359.075,287.156 360.036,285.375C360.997,283.594 361.723,281.168 362.215,278.098C362.707,275.027 363.024,271.465 363.165,267.41C363.305,263.355 363.375,259.055 363.375,254.508C363.375,247.43 363.223,240.891 362.918,234.891C362.614,228.891 362.227,223.559 361.758,218.895C361.29,214.23 360.809,210.246 360.317,206.941C359.825,203.637 359.415,201.141 359.086,199.453L379.125,199.945Z" clip-rule="nonzero"/>
        </clipPath>
        <g clip-path="url(#_clip1)">
            <text x="46.618px" y="300px" style="font-family:'RumRaisin-Regular', 'Rum Raisin';font-size:144px;">DEPEW</text>
            <g id="Background" transform="matrix(0.542012,0,0,0.542012,20.606,87.0528)">
                <g transform="matrix(1,0,0,0.911251,0,152.654)">
                    <rect x="0" y="200.241" width="800" height="76.817" style="fill:rgb(35,221,255);"/>
                </g>
                <g transform="matrix(1,0,0,0.0260358,0,329.91)">
                    <rect x="0" y="200.241" width="800" height="76.817"/>
                </g>
                <g transform="matrix(1,0,0,0.260358,-5.68434e-14,263.107)">
                    <rect x="0" y="200.241" width="800" height="76.817" style="fill:rgb(79,255,25);"/>
                </g>
                <g transform="matrix(1,0,0,0.0260358,-5.68434e-14,308.028)">
                    <rect x="0" y="200.241" width="800" height="76.817"/>
                </g>
                <g transform="matrix(1,0,0,0.260358,0,241.107)">
                    <rect x="0" y="200.241" width="800" height="76.817" style="fill:rgb(255,226,27);"/>
                </g>
                <g transform="matrix(1,0,0,0.0260358,0,286.028)">
                    <rect x="0" y="200.241" width="800" height="76.817"/>
                </g>
                <g transform="matrix(1,0,0,0.260358,0,219.107)">
                    <rect x="0" y="200.241" width="800" height="76.817" style="fill:rgb(255,132,0);"/>
                </g>
                <g transform="matrix(1,0,0,0.0260358,-5.68434e-14,265.028)">
                    <rect x="0" y="200.241" width="800" height="76.817"/>
                </g>
                <g transform="matrix(1,0,0,0.911251,0,17.7712)">
                    <rect x="0" y="200.241" width="800" height="76.817" style="fill:rgb(255,40,40);"/>
                </g>
            </g>
        </g>
    </g>
</svg>
