<?xml version="1.0" encoding="UTF-8" standalone="no"?>
<!DOCTYPE svg PUBLIC "-//W3C//DTD SVG 1.1//EN" "http://www.w3.org/Graphics/SVG/1.1/DTD/svg11.dtd">
<svg width="100%" height="100%" viewBox="0 0 701 200" version="1.1" xmlns="http://www.w3.org/2000/svg" xmlns:xlink="http://www.w3.org/1999/xlink" xml:space="preserve" xmlns:serif="http://www.serif.com/" style="fill-rule:evenodd;clip-rule:evenodd;stroke-linejoin:round;stroke-miterlimit:2;">
    <g transform="matrix(1.84502,0,0,1.84482,-87.8265,-360.821)">
        <clipPath id="_clip1">
            <path d="M84.024,301.125L82.055,301.125C79.149,301.125 76.395,301.277 73.793,301.582C71.192,301.887 68.415,302.32 65.461,302.883C66.071,292.57 66.54,282.879 66.868,273.809C67.196,264.738 67.36,255.937 67.36,247.406C67.36,236.484 67.079,225.703 66.516,215.063L48.797,216.328C48.75,214.734 48.704,213.27 48.657,211.934C48.61,210.598 48.54,209.309 48.446,208.066C48.352,206.824 48.235,205.559 48.094,204.27C47.954,202.98 47.79,201.539 47.602,199.945L56.11,199.945C59.86,199.945 63.528,199.922 67.114,199.875C70.7,199.828 74.286,199.758 77.872,199.664C81.457,199.57 85.09,199.453 88.77,199.313C92.45,199.172 96.258,198.984 100.196,198.75C99.961,201.141 99.809,203.168 99.739,204.832C99.668,206.496 99.633,208.219 99.633,210L99.633,213.727L82.336,214.148C82.196,218.648 82.114,223.066 82.09,227.402C82.067,231.738 82.055,236.109 82.055,240.516C82.055,250.734 82.219,260.859 82.547,270.891C82.875,280.922 83.368,291 84.024,301.125ZM149.133,301.266C148.149,299.906 147.411,298.383 146.918,296.695C146.426,295.008 146.063,293.402 145.829,291.879C145.594,290.355 145.465,289.031 145.442,287.906C145.418,286.781 145.407,286.102 145.407,285.867C145.407,284.367 145.348,282.574 145.231,280.488C145.114,278.402 144.844,276.246 144.422,274.02C144,271.793 143.403,269.59 142.629,267.41C141.856,265.23 140.801,263.273 139.465,261.539C138.129,259.805 136.489,258.41 134.543,257.355C132.598,256.301 130.266,255.773 127.547,255.773C127.172,255.773 126.786,255.797 126.387,255.844C125.989,255.891 125.602,255.914 125.227,255.914L125.227,299.719L105.821,300.141C106.102,298.5 106.348,296.566 106.559,294.34C106.77,292.113 106.946,289.746 107.086,287.238C107.227,284.73 107.344,282.117 107.438,279.398C107.532,276.68 107.602,274.008 107.649,271.383C107.696,268.758 107.731,266.215 107.754,263.754C107.778,261.293 107.79,259.078 107.79,257.109C107.79,255.609 107.778,253.406 107.754,250.5C107.731,247.594 107.684,244.324 107.614,240.691C107.543,237.059 107.473,233.238 107.403,229.23C107.332,225.223 107.25,221.379 107.157,217.699C107.063,214.02 106.957,210.668 106.84,207.645C106.723,204.621 106.618,202.289 106.524,200.648C109.102,200.133 111.868,199.746 114.821,199.488C117.774,199.23 120.516,199.031 123.047,198.891C126,198.703 128.93,198.609 131.836,198.609C136.524,198.422 140.93,198.809 145.055,199.77C149.18,200.73 152.801,202.348 155.918,204.621C159.036,206.895 161.52,209.824 163.372,213.41C165.223,216.996 166.196,221.273 166.29,226.242C165.54,229.758 164.344,233.016 162.704,236.016C162,237.281 161.168,238.582 160.207,239.918C159.247,241.254 158.122,242.508 156.832,243.68C155.543,244.852 154.079,245.918 152.438,246.879C150.797,247.84 148.969,248.602 146.954,249.164C149.954,250.336 152.391,251.707 154.266,253.277C156.141,254.848 157.618,256.605 158.696,258.551C159.774,260.496 160.559,262.582 161.051,264.809C161.543,267.035 161.895,269.379 162.106,271.84C162.317,274.301 162.493,276.832 162.633,279.434C162.774,282.035 163.032,284.672 163.407,287.344C163.782,289.359 164.25,291.281 164.813,293.109C165.329,294.703 165.973,296.309 166.747,297.926C167.52,299.543 168.469,300.867 169.594,301.898L149.133,301.266ZM148.43,227.156C148.383,224.156 147.727,221.461 146.461,219.07C145.899,218.086 145.184,217.102 144.317,216.117C143.45,215.133 142.372,214.266 141.082,213.516C139.793,212.766 138.247,212.156 136.442,211.688C134.637,211.219 132.54,210.984 130.149,210.984C128.321,210.984 126.305,211.242 124.102,211.758L124.383,243.539C125.227,243.68 126.071,243.785 126.915,243.855C127.758,243.926 128.532,243.961 129.235,243.961C131.485,243.961 133.477,243.727 135.211,243.258C136.946,242.789 138.469,242.156 139.782,241.359C141.094,240.562 142.219,239.672 143.157,238.688C144.094,237.703 144.891,236.672 145.547,235.594C147.047,233.109 148.008,230.297 148.43,227.156ZM224.579,301.617C220.782,301.523 217.254,301.465 213.997,301.441C210.739,301.418 207.657,301.406 204.75,301.406C199.079,301.406 194.332,301.465 190.512,301.582C186.692,301.699 183.586,301.805 181.196,301.898C178.383,302.039 176.157,302.18 174.516,302.32C174.844,299.18 175.137,296.016 175.395,292.828C175.653,289.641 175.875,286.5 176.063,283.406C176.25,280.313 176.415,277.336 176.555,274.477C176.696,271.617 176.813,268.922 176.907,266.391C177.094,260.484 177.211,254.836 177.258,249.445C177.211,243.82 177.094,238.055 176.907,232.148C176.813,229.617 176.696,226.957 176.555,224.168C176.415,221.379 176.25,218.531 176.063,215.625C175.875,212.719 175.653,209.801 175.395,206.871C175.137,203.941 174.844,201.094 174.516,198.328C180.375,198.562 185.614,198.738 190.231,198.855C194.848,198.973 198.961,199.031 202.571,199.031C206.133,199.031 209.204,198.996 211.782,198.926C214.36,198.855 216.469,198.773 218.11,198.68C220.032,198.586 221.625,198.469 222.891,198.328C222.891,198.281 222.891,198.703 222.891,199.594C222.891,200.484 222.915,201.656 222.961,203.109C223.008,204.562 223.09,206.203 223.207,208.031C223.325,209.859 223.5,211.711 223.735,213.586C218.297,213.07 213.54,212.73 209.461,212.566C205.383,212.402 201.891,212.32 198.985,212.32L195.786,212.32C194.872,212.32 194.016,212.367 193.219,212.461C193.125,217.664 193.055,222.551 193.008,227.121C192.961,231.691 192.938,236.016 192.938,240.094C196.219,240 199.149,239.871 201.727,239.707C204.305,239.543 206.508,239.344 208.336,239.109C210.446,238.875 212.321,238.617 213.961,238.336C213.915,238.664 213.891,239.039 213.891,239.461C213.844,239.836 213.821,240.281 213.821,240.797L213.821,242.555C213.821,244.055 213.868,245.848 213.961,247.934C214.055,250.02 214.243,252.258 214.524,254.648C209.461,253.992 205.102,253.582 201.446,253.418C197.79,253.254 194.954,253.172 192.938,253.172C192.938,258.047 192.961,262.395 193.008,266.215C193.055,270.035 193.114,273.398 193.184,276.305C193.254,279.211 193.325,281.695 193.395,283.758C193.465,285.82 193.547,287.531 193.641,288.891C198.422,288.797 202.688,288.562 206.438,288.188C210.188,287.812 213.352,287.426 215.93,287.027C218.508,286.629 220.477,286.266 221.836,285.938C223.196,285.609 223.875,285.398 223.875,285.305C223.829,285.539 223.805,285.797 223.805,286.078C223.758,286.312 223.735,286.617 223.735,286.992L223.735,288.328C223.735,289.641 223.782,291.398 223.875,293.602C223.969,295.805 224.204,298.477 224.579,301.617ZM286.946,199.031C284.508,207.844 282.399,216.609 280.618,225.328C278.836,234.047 277.313,242.742 276.047,251.414C274.782,260.086 273.704,268.734 272.813,277.359C271.922,285.984 271.125,294.586 270.422,303.164L243.915,301.406C242.836,292.781 241.758,284.191 240.68,275.637C239.602,267.082 238.418,258.551 237.129,250.043C235.84,241.535 234.422,233.074 232.875,224.66C231.329,216.246 229.571,207.844 227.602,199.453C228.54,199.453 229.477,199.488 230.415,199.559C231.352,199.629 232.243,199.664 233.086,199.664C235.711,199.664 238.219,199.594 240.61,199.453C243,199.313 245.579,199.172 248.344,199.031C248.672,205.781 249.118,212.777 249.68,220.02C250.243,227.262 250.899,234.574 251.649,241.957C252.399,249.34 253.243,256.711 254.18,264.07C255.118,271.43 256.149,278.555 257.274,285.445C258.446,278.555 259.536,271.43 260.543,264.07C261.551,256.711 262.43,249.328 263.18,241.922C263.93,234.516 264.551,227.18 265.043,219.914C265.536,212.648 265.875,205.641 266.063,198.891C268.032,199.125 269.93,199.277 271.758,199.348C273.586,199.418 275.391,199.453 277.172,199.453C280.219,199.453 283.477,199.313 286.946,199.031ZM355.36,249.586C355.36,257.086 354.657,264.117 353.25,270.68C351.844,277.242 349.758,282.973 346.993,287.871C344.227,292.77 340.793,296.637 336.692,299.473C332.59,302.309 327.868,303.727 322.524,303.727C317.086,303.727 312.317,302.309 308.215,299.473C304.114,296.637 300.692,292.77 297.95,287.871C295.207,282.973 293.145,277.242 291.762,270.68C290.379,264.117 289.688,257.086 289.688,249.586C289.688,242.133 290.356,235.125 291.692,228.563C293.028,222 295.055,216.281 297.774,211.406C300.493,206.531 303.915,202.676 308.04,199.84C312.165,197.004 316.993,195.586 322.524,195.586C328.243,195.586 333.176,197.004 337.325,199.84C341.473,202.676 344.883,206.531 347.555,211.406C350.227,216.281 352.196,222 353.461,228.563C354.727,235.125 355.36,242.133 355.36,249.586ZM336.938,249.586C336.938,243.773 336.704,238.301 336.235,233.168C335.766,228.035 334.981,223.559 333.879,219.738C332.778,215.918 331.301,212.906 329.45,210.703C327.598,208.5 325.29,207.398 322.524,207.398C319.852,207.398 317.602,208.5 315.774,210.703C313.946,212.906 312.469,215.918 311.344,219.738C310.219,223.559 309.399,228.035 308.883,233.168C308.368,238.301 308.11,243.773 308.11,249.586C308.11,255.445 308.368,260.941 308.883,266.074C309.399,271.207 310.231,275.684 311.379,279.504C312.528,283.324 314.016,286.348 315.844,288.574C317.672,290.801 319.899,291.914 322.524,291.914C325.102,291.914 327.305,290.801 329.133,288.574C330.961,286.348 332.461,283.324 333.633,279.504C334.805,275.684 335.649,271.207 336.165,266.074C336.68,260.941 336.938,255.445 336.938,249.586ZM406.758,301.266C405.774,299.906 405.036,298.383 404.543,296.695C404.051,295.008 403.688,293.402 403.454,291.879C403.219,290.355 403.09,289.031 403.067,287.906C403.043,286.781 403.032,286.102 403.032,285.867C403.032,284.367 402.973,282.574 402.856,280.488C402.739,278.402 402.469,276.246 402.047,274.02C401.625,271.793 401.028,269.59 400.254,267.41C399.481,265.23 398.426,263.273 397.09,261.539C395.754,259.805 394.114,258.41 392.168,257.355C390.223,256.301 387.891,255.773 385.172,255.773C384.797,255.773 384.411,255.797 384.012,255.844C383.614,255.891 383.227,255.914 382.852,255.914L382.852,299.719L363.446,300.141C363.727,298.5 363.973,296.566 364.184,294.34C364.395,292.113 364.571,289.746 364.711,287.238C364.852,284.73 364.969,282.117 365.063,279.398C365.157,276.68 365.227,274.008 365.274,271.383C365.321,268.758 365.356,266.215 365.379,263.754C365.403,261.293 365.415,259.078 365.415,257.109C365.415,255.609 365.403,253.406 365.379,250.5C365.356,247.594 365.309,244.324 365.239,240.691C365.168,237.059 365.098,233.238 365.028,229.23C364.957,225.223 364.875,221.379 364.782,217.699C364.688,214.02 364.582,210.668 364.465,207.645C364.348,204.621 364.243,202.289 364.149,200.648C366.727,200.133 369.493,199.746 372.446,199.488C375.399,199.23 378.141,199.031 380.672,198.891C383.625,198.703 386.555,198.609 389.461,198.609C394.149,198.422 398.555,198.809 402.68,199.77C406.805,200.73 410.426,202.348 413.543,204.621C416.661,206.895 419.145,209.824 420.997,213.41C422.848,216.996 423.821,221.273 423.915,226.242C423.165,229.758 421.969,233.016 420.329,236.016C419.625,237.281 418.793,238.582 417.832,239.918C416.872,241.254 415.747,242.508 414.457,243.68C413.168,244.852 411.704,245.918 410.063,246.879C408.422,247.84 406.594,248.602 404.579,249.164C407.579,250.336 410.016,251.707 411.891,253.277C413.766,254.848 415.243,256.605 416.321,258.551C417.399,260.496 418.184,262.582 418.676,264.809C419.168,267.035 419.52,269.379 419.731,271.84C419.942,274.301 420.118,276.832 420.258,279.434C420.399,282.035 420.657,284.672 421.032,287.344C421.407,289.359 421.875,291.281 422.438,293.109C422.954,294.703 423.598,296.309 424.372,297.926C425.145,299.543 426.094,300.867 427.219,301.898L406.758,301.266ZM406.055,227.156C406.008,224.156 405.352,221.461 404.086,219.07C403.524,218.086 402.809,217.102 401.942,216.117C401.075,215.133 399.997,214.266 398.707,213.516C397.418,212.766 395.872,212.156 394.067,211.688C392.262,211.219 390.165,210.984 387.774,210.984C385.946,210.984 383.93,211.242 381.727,211.758L382.008,243.539C382.852,243.68 383.696,243.785 384.54,243.855C385.383,243.926 386.157,243.961 386.86,243.961C389.11,243.961 391.102,243.727 392.836,243.258C394.571,242.789 396.094,242.156 397.407,241.359C398.719,240.562 399.844,239.672 400.782,238.688C401.719,237.703 402.516,236.672 403.172,235.594C404.672,233.109 405.633,230.297 406.055,227.156Z" clip-rule="nonzero"/>
        </clipPath>
        <g clip-path="url(#_clip1)">
            <text x="46.618px" y="300px" style="font-family:'RumRaisin-Regular', 'Rum Raisin';font-size:144px;">TREV<tspan x="286.243px " y="300px ">O</tspan>R</text>
            <g id="Background" transform="matrix(0.542012,0,0,0.542012,20.606,87.0528)">
                <g transform="matrix(1,0,0,0.911251,0,152.654)">
                    <rect x="0" y="200.241" width="800" height="76.817" style="fill:rgb(35,221,255);"/>
                </g>
                <g transform="matrix(1,0,0,0.0260358,0,329.91)">
                    <rect x="0" y="200.241" width="800" height="76.817"/>
                </g>
                <g transform="matrix(1,0,0,0.260358,-5.68434e-14,263.107)">
                    <rect x="0" y="200.241" width="800" height="76.817" style="fill:rgb(79,255,25);"/>
                </g>
                <g transform="matrix(1,0,0,0.0260358,-5.68434e-14,308.028)">
                    <rect x="0" y="200.241" width="800" height="76.817"/>
                </g>
                <g transform="matrix(1,0,0,0.260358,0,241.107)">
                    <rect x="0" y="200.241" width="800" height="76.817" style="fill:rgb(255,226,27);"/>
                </g>
                <g transform="matrix(1,0,0,0.0260358,0,286.028)">
                    <rect x="0" y="200.241" width="800" height="76.817"/>
                </g>
                <g transform="matrix(1,0,0,0.260358,0,219.107)">
                    <rect x="0" y="200.241" width="800" height="76.817" style="fill:rgb(255,132,0);"/>
                </g>
                <g transform="matrix(1,0,0,0.0260358,-5.68434e-14,265.028)">
                    <rect x="0" y="200.241" width="800" height="76.817"/>
                </g>
                <g transform="matrix(1,0,0,0.911251,0,17.7712)">
                    <rect x="0" y="200.241" width="800" height="76.817" style="fill:rgb(255,40,40);"/>
                </g>
            </g>
        </g>
    </g>
</svg>
