<?xml version="1.0" encoding="UTF-8" standalone="no"?>
<!DOCTYPE svg PUBLIC "-//W3C//DTD SVG 1.1//EN" "http://www.w3.org/Graphics/SVG/1.1/DTD/svg11.dtd">
<svg width="100%" height="100%" viewBox="0 0 710 97" version="1.1" xmlns="http://www.w3.org/2000/svg" xmlns:xlink="http://www.w3.org/1999/xlink" xml:space="preserve" xmlns:serif="http://www.serif.com/" style="fill-rule:evenodd;clip-rule:evenodd;stroke-linejoin:round;stroke-miterlimit:2;">
    <g transform="matrix(0.999951,0,0,0.999856,-83.4779,-181.069)">
        <clipPath id="_clip1">
            <path d="M141.278,277.309L88.695,277.309C86.882,277.309 85.56,276.894 84.729,276.063C83.898,275.232 83.482,273.91 83.482,272.096L83.482,198.661C83.482,197.679 83.614,196.848 83.879,196.168C84.143,195.488 84.54,194.921 85.069,194.468L99.688,182.115C100.065,181.813 100.575,181.568 101.218,181.379C101.86,181.19 102.559,181.095 103.314,181.095L155.897,181.095C157.711,181.095 159.033,181.511 159.864,182.342C160.695,183.173 161.11,184.495 161.11,186.308L161.11,199.568C161.11,200.55 160.978,201.381 160.714,202.061C160.449,202.741 160.053,203.307 159.524,203.761L149.778,211.807C150.533,212.185 151.081,212.751 151.421,213.507C151.761,214.262 151.931,215.244 151.931,216.453L151.931,228.579C151.931,229.561 151.799,230.392 151.534,231.072C151.27,231.752 150.873,232.319 150.344,232.772L140.258,241.272L155.897,241.272C157.711,241.272 159.033,241.687 159.864,242.518C160.695,243.349 161.11,244.671 161.11,246.485L161.11,259.744C161.11,260.726 160.978,261.557 160.714,262.237C160.449,262.917 160.053,263.484 159.524,263.937L144.791,276.176C144.489,276.478 144.017,276.743 143.375,276.969C142.733,277.196 142.034,277.309 141.278,277.309ZM155.897,263.824C157.333,263.824 158.372,263.502 159.014,262.86C159.656,262.218 159.977,261.179 159.977,259.744L159.977,246.485C159.977,245.049 159.656,244.01 159.014,243.368C158.372,242.726 157.333,242.405 155.897,242.405L124.619,242.405L124.619,232.659L146.718,232.659C148.153,232.659 149.192,232.338 149.834,231.696C150.477,231.053 150.798,230.015 150.798,228.579L150.798,216.453C150.798,215.018 150.477,213.979 149.834,213.337C149.192,212.695 148.153,212.373 146.718,212.373L124.619,212.373L124.619,203.647L155.897,203.647C157.333,203.647 158.372,203.326 159.014,202.684C159.656,202.042 159.977,201.003 159.977,199.568L159.977,186.308C159.977,184.873 159.656,183.834 159.014,183.192C158.372,182.55 157.333,182.229 155.897,182.229L103.314,182.229C101.879,182.229 100.84,182.55 100.198,183.192C99.555,183.834 99.234,184.873 99.234,186.308L99.234,259.744C99.234,261.179 99.555,262.218 100.198,262.86C100.84,263.502 101.879,263.824 103.314,263.824L155.897,263.824ZM149.778,252.491L149.778,253.624L111.587,253.624L111.587,192.428L149.778,192.428L149.778,193.561L112.72,193.561L112.72,222.006L140.598,222.006L140.598,223.139L112.72,223.139L112.72,252.491L149.778,252.491ZM199.641,193.335L241.345,240.252L241.345,192.428L242.479,192.428L242.479,253.624L241.345,253.624L241.345,241.952L198.508,193.901C198.432,193.826 198.338,193.75 198.225,193.675C198.111,193.599 198.017,193.561 197.941,193.561C197.866,193.561 197.809,193.599 197.771,193.675C197.734,193.75 197.715,193.826 197.715,193.901L197.715,253.624L196.581,253.624L196.581,193.675C196.581,193.221 196.733,192.881 197.035,192.655C197.337,192.428 197.639,192.315 197.941,192.315C198.244,192.315 198.508,192.39 198.735,192.541C198.961,192.693 199.264,192.957 199.641,193.335ZM205.761,263.824C207.196,263.824 208.235,263.502 208.877,262.86C209.52,262.218 209.841,261.179 209.841,259.744L209.841,222.346L229.219,245.805L229.219,259.744C229.219,261.179 229.541,262.218 230.183,262.86C230.825,263.502 231.864,263.824 233.299,263.824L250.298,263.824C251.734,263.824 252.772,263.502 253.415,262.86C254.057,262.218 254.378,261.179 254.378,259.744L254.378,186.308C254.378,184.873 254.057,183.834 253.415,183.192C252.772,182.55 251.734,182.229 250.298,182.229L233.299,182.229C231.864,182.229 230.825,182.55 230.183,183.192C229.541,183.834 229.219,184.873 229.219,186.308L229.219,210.447L207.234,185.289C206.252,184.155 205.251,183.362 204.231,182.909C203.211,182.455 201.983,182.229 200.548,182.229L188.762,182.229C187.327,182.229 186.288,182.55 185.646,183.192C185.003,183.834 184.682,184.873 184.682,186.308L184.682,259.744C184.682,261.179 185.003,262.218 185.646,262.86C186.288,263.502 187.327,263.824 188.762,263.824L205.761,263.824ZM209.387,263.937L194.655,276.176C194.353,276.478 193.881,276.743 193.238,276.969C192.596,277.196 191.897,277.309 191.142,277.309L174.143,277.309C172.33,277.309 171.008,276.894 170.177,276.063C169.345,275.232 168.93,273.91 168.93,272.096L168.93,198.661C168.93,197.679 169.062,196.848 169.327,196.168C169.591,195.488 169.988,194.921 170.516,194.468L185.136,182.115C185.513,181.813 186.023,181.568 186.665,181.379C187.308,181.19 188.006,181.095 188.762,181.095L200.548,181.095C202.21,181.095 203.608,181.36 204.741,181.889C205.874,182.418 207.007,183.286 208.141,184.495L215.96,193.561L229.673,182.115C230.05,181.813 230.56,181.568 231.203,181.379C231.845,181.19 232.544,181.095 233.299,181.095L250.298,181.095C252.111,181.095 253.433,181.511 254.264,182.342C255.096,183.173 255.511,184.495 255.511,186.308L255.511,259.744C255.511,260.726 255.379,261.557 255.114,262.237C254.85,262.917 254.453,263.484 253.925,263.937L239.192,276.176C238.89,276.478 238.418,276.743 237.776,276.969C237.133,277.196 236.435,277.309 235.679,277.309L218.68,277.309C216.867,277.309 215.545,276.894 214.714,276.063C213.883,275.232 213.467,273.91 213.467,272.096L213.467,258.611L210.974,255.551L210.974,259.744C210.974,260.726 210.842,261.557 210.577,262.237C210.313,262.917 209.916,263.484 209.387,263.937ZM329.06,277.309L293.362,277.309C283.465,277.309 276.155,274.741 271.433,269.603C266.711,264.466 264.351,257.817 264.351,249.658L264.351,217.7C264.351,213.545 264.955,209.956 266.164,206.934C267.373,203.912 269.148,201.381 271.49,199.341L286.109,186.988C288.451,185.024 291.454,183.551 295.119,182.569C298.783,181.587 303.07,181.095 307.981,181.095L336.313,181.095C338.126,181.095 339.448,181.511 340.279,182.342C341.11,183.173 341.526,184.495 341.526,186.308L341.526,200.021C341.526,201.003 341.393,201.834 341.129,202.514C340.865,203.194 340.468,203.761 339.939,204.214L325.207,216.453C324.904,216.755 324.432,217.02 323.79,217.247C323.148,217.473 322.449,217.586 321.694,217.586L306.961,217.586L306.961,233.905C307.037,233.754 307.169,233.584 307.358,233.395C307.547,233.207 307.717,233.037 307.868,232.886L322.487,220.533C322.865,220.231 323.375,219.985 324.017,219.796C324.659,219.607 325.358,219.513 326.113,219.513L343.679,219.513C345.492,219.513 346.814,219.929 347.645,220.76C348.476,221.591 348.892,222.913 348.892,224.726L348.892,259.744C348.892,260.726 348.76,261.557 348.495,262.237C348.231,262.917 347.834,263.484 347.305,263.937L332.573,276.176C332.271,276.478 331.798,276.743 331.156,276.969C330.514,277.196 329.815,277.309 329.06,277.309ZM343.679,263.824C345.114,263.824 346.153,263.502 346.795,262.86C347.437,262.218 347.759,261.179 347.759,259.744L347.759,224.726C347.759,223.291 347.437,222.252 346.795,221.61C346.153,220.967 345.114,220.646 343.679,220.646L326.113,220.646C324.678,220.646 323.639,220.967 322.997,221.61C322.355,222.252 322.034,223.291 322.034,224.726L322.034,242.405L311.041,242.405C309.303,242.405 308,241.952 307.131,241.045C306.262,240.138 305.828,238.741 305.828,236.852L305.828,209.767C305.828,207.878 306.395,206.462 307.528,205.517C308.661,204.573 310.399,204.101 312.741,204.101L336.313,204.101C337.748,204.101 338.787,203.78 339.429,203.137C340.071,202.495 340.392,201.456 340.392,200.021L340.392,186.308C340.392,184.873 340.071,183.834 339.429,183.192C338.787,182.55 337.748,182.229 336.313,182.229L307.981,182.229C298.537,182.229 291.53,184.118 286.959,187.895C282.388,191.673 280.103,197.49 280.103,205.347L280.103,240.705C280.103,248.562 282.388,254.38 286.959,258.157C291.53,261.935 298.537,263.824 307.981,263.824L343.679,263.824ZM312.854,253.624C308.699,253.624 305.299,253.36 302.655,252.831C300.01,252.302 297.933,251.452 296.422,250.281C294.911,249.11 293.872,247.599 293.305,245.748C292.739,243.897 292.455,241.649 292.455,239.005L292.455,207.274C292.455,201.91 293.664,198.094 296.082,195.828C298.499,193.561 303.335,192.428 310.588,192.428L330.193,192.428L330.193,193.561L310.588,193.561C303.939,193.561 299.444,194.6 297.102,196.678C294.76,198.755 293.589,202.287 293.589,207.274L293.589,239.005C293.589,243.916 294.892,247.391 297.498,249.431C300.105,251.471 305.223,252.491 312.854,252.491L334.273,252.491L334.273,230.846L335.406,230.846L335.406,253.624L312.854,253.624ZM408.841,277.309L360.564,277.309C358.751,277.309 357.429,276.894 356.598,276.063C355.767,275.232 355.351,273.91 355.351,272.096L355.351,258.611C355.351,257.628 355.484,256.797 355.748,256.117C356.012,255.437 356.409,254.871 356.938,254.417L370.65,242.858L370.65,217.586L360.564,217.586C358.751,217.586 357.429,217.171 356.598,216.34C355.767,215.509 355.351,214.187 355.351,212.373L355.351,198.661C355.351,197.679 355.484,196.848 355.748,196.168C356.012,195.488 356.409,194.921 356.938,194.468L371.557,182.115C371.935,181.813 372.445,181.568 373.087,181.379C373.729,181.19 374.428,181.095 375.183,181.095L423.46,181.095C425.274,181.095 426.596,181.511 427.427,182.342C428.258,183.173 428.673,184.495 428.673,186.308L428.673,200.021C428.673,201.003 428.541,201.834 428.277,202.514C428.012,203.194 427.616,203.761 427.087,204.214L413.601,215.547L413.601,241.045L423.46,241.045C425.274,241.045 426.596,241.461 427.427,242.292C428.258,243.123 428.673,244.445 428.673,246.258L428.673,259.744C428.673,260.726 428.541,261.557 428.277,262.237C428.012,262.917 427.616,263.484 427.087,263.937L412.354,276.176C412.052,276.478 411.58,276.743 410.938,276.969C410.296,277.196 409.597,277.309 408.841,277.309ZM375.183,263.824L423.46,263.824C424.896,263.824 425.935,263.502 426.577,262.86C427.219,262.218 427.54,261.179 427.54,259.744L427.54,246.258C427.54,244.823 427.219,243.784 426.577,243.142C425.935,242.499 424.896,242.178 423.46,242.178L412.468,242.178L412.468,204.101L423.46,204.101C424.896,204.101 425.935,203.78 426.577,203.137C427.219,202.495 427.54,201.456 427.54,200.021L427.54,186.308C427.54,184.873 427.219,183.834 426.577,183.192C425.935,182.55 424.896,182.229 423.46,182.229L375.183,182.229C373.748,182.229 372.709,182.55 372.067,183.192C371.425,183.834 371.104,184.873 371.104,186.308L371.104,200.021C371.104,201.456 371.425,202.495 372.067,203.137C372.709,203.78 373.748,204.101 375.183,204.101L386.403,204.101L386.403,242.178L375.183,242.178C373.748,242.178 372.709,242.499 372.067,243.142C371.425,243.784 371.104,244.823 371.104,246.258L371.104,259.744C371.104,261.179 371.425,262.218 372.067,262.86C372.709,263.502 373.748,263.824 375.183,263.824ZM417.341,253.624L381.303,253.624L381.303,252.491L398.869,252.491L398.869,193.561L381.303,193.561L381.303,192.428L417.341,192.428L417.341,193.561L400.002,193.561L400.002,252.491L417.341,252.491L417.341,253.624ZM467.771,193.335L509.475,240.252L509.475,192.428L510.608,192.428L510.608,253.624L509.475,253.624L509.475,241.952L466.638,193.901C466.562,193.826 466.468,193.75 466.354,193.675C466.241,193.599 466.147,193.561 466.071,193.561C465.995,193.561 465.939,193.599 465.901,193.675C465.863,193.75 465.844,193.826 465.844,193.901L465.844,253.624L464.711,253.624L464.711,193.675C464.711,193.221 464.862,192.881 465.164,192.655C465.467,192.428 465.769,192.315 466.071,192.315C466.373,192.315 466.638,192.39 466.864,192.541C467.091,192.693 467.393,192.957 467.771,193.335ZM473.891,263.824C475.326,263.824 476.365,263.502 477.007,262.86C477.649,262.218 477.97,261.179 477.97,259.744L477.97,222.346L497.349,245.805L497.349,259.744C497.349,261.179 497.67,262.218 498.312,262.86C498.954,263.502 499.993,263.824 501.429,263.824L518.428,263.824C519.863,263.824 520.902,263.502 521.544,262.86C522.186,262.218 522.507,261.179 522.507,259.744L522.507,186.308C522.507,184.873 522.186,183.834 521.544,183.192C520.902,182.55 519.863,182.229 518.428,182.229L501.429,182.229C499.993,182.229 498.954,182.55 498.312,183.192C497.67,183.834 497.349,184.873 497.349,186.308L497.349,210.447L475.364,185.289C474.382,184.155 473.381,183.362 472.361,182.909C471.341,182.455 470.113,182.229 468.678,182.229L456.892,182.229C455.456,182.229 454.417,182.55 453.775,183.192C453.133,183.834 452.812,184.873 452.812,186.308L452.812,259.744C452.812,261.179 453.133,262.218 453.775,262.86C454.417,263.502 455.456,263.824 456.892,263.824L473.891,263.824ZM477.517,263.937L462.785,276.176C462.482,276.478 462.01,276.743 461.368,276.969C460.726,277.196 460.027,277.309 459.271,277.309L442.273,277.309C440.459,277.309 439.137,276.894 438.306,276.063C437.475,275.232 437.06,273.91 437.06,272.096L437.06,198.661C437.06,197.679 437.192,196.848 437.456,196.168C437.721,195.488 438.117,194.921 438.646,194.468L453.265,182.115C453.643,181.813 454.153,181.568 454.795,181.379C455.437,181.19 456.136,181.095 456.892,181.095L468.678,181.095C470.34,181.095 471.737,181.36 472.871,181.889C474.004,182.418 475.137,183.286 476.27,184.495L484.09,193.561L497.802,182.115C498.18,181.813 498.69,181.568 499.332,181.379C499.974,181.19 500.673,181.095 501.429,181.095L518.428,181.095C520.241,181.095 521.563,181.511 522.394,182.342C523.225,183.173 523.641,184.495 523.641,186.308L523.641,259.744C523.641,260.726 523.508,261.557 523.244,262.237C522.98,262.917 522.583,263.484 522.054,263.937L507.322,276.176C507.02,276.478 506.547,276.743 505.905,276.969C505.263,277.196 504.564,277.309 503.809,277.309L486.81,277.309C484.996,277.309 483.674,276.894 482.843,276.063C482.012,275.232 481.597,273.91 481.597,272.096L481.597,258.611L479.104,255.551L479.104,259.744C479.104,260.726 478.971,261.557 478.707,262.237C478.442,262.917 478.046,263.484 477.517,263.937ZM591.523,277.309L538.94,277.309C537.127,277.309 535.804,276.894 534.973,276.063C534.142,275.232 533.727,273.91 533.727,272.096L533.727,198.661C533.727,197.679 533.859,196.848 534.123,196.168C534.388,195.488 534.784,194.921 535.313,194.468L549.932,182.115C550.31,181.813 550.82,181.568 551.462,181.379C552.104,181.19 552.803,181.095 553.559,181.095L606.142,181.095C607.955,181.095 609.277,181.511 610.109,182.342C610.94,183.173 611.355,184.495 611.355,186.308L611.355,199.568C611.355,200.55 611.223,201.381 610.958,202.061C610.694,202.741 610.297,203.307 609.769,203.761L600.023,211.807C600.778,212.185 601.326,212.751 601.666,213.507C602.006,214.262 602.176,215.244 602.176,216.453L602.176,228.579C602.176,229.561 602.043,230.392 601.779,231.072C601.515,231.752 601.118,232.319 600.589,232.772L590.503,241.272L606.142,241.272C607.955,241.272 609.277,241.687 610.109,242.518C610.94,243.349 611.355,244.671 611.355,246.485L611.355,259.744C611.355,260.726 611.223,261.557 610.958,262.237C610.694,262.917 610.297,263.484 609.769,263.937L595.036,276.176C594.734,276.478 594.262,276.743 593.62,276.969C592.977,277.196 592.279,277.309 591.523,277.309ZM606.142,263.824C607.578,263.824 608.616,263.502 609.259,262.86C609.901,262.218 610.222,261.179 610.222,259.744L610.222,246.485C610.222,245.049 609.901,244.01 609.259,243.368C608.616,242.726 607.578,242.405 606.142,242.405L574.864,242.405L574.864,232.659L596.963,232.659C598.398,232.659 599.437,232.338 600.079,231.696C600.721,231.053 601.042,230.015 601.042,228.579L601.042,216.453C601.042,215.018 600.721,213.979 600.079,213.337C599.437,212.695 598.398,212.373 596.963,212.373L574.864,212.373L574.864,203.647L606.142,203.647C607.578,203.647 608.616,203.326 609.259,202.684C609.901,202.042 610.222,201.003 610.222,199.568L610.222,186.308C610.222,184.873 609.901,183.834 609.259,183.192C608.616,182.55 607.578,182.229 606.142,182.229L553.559,182.229C552.123,182.229 551.085,182.55 550.442,183.192C549.8,183.834 549.479,184.873 549.479,186.308L549.479,259.744C549.479,261.179 549.8,262.218 550.442,262.86C551.085,263.502 552.123,263.824 553.559,263.824L606.142,263.824ZM600.023,252.491L600.023,253.624L561.832,253.624L561.832,192.428L600.023,192.428L600.023,193.561L562.965,193.561L562.965,222.006L590.843,222.006L590.843,223.139L562.965,223.139L562.965,252.491L600.023,252.491ZM676.971,277.309L624.388,277.309C622.574,277.309 621.252,276.894 620.421,276.063C619.59,275.232 619.175,273.91 619.175,272.096L619.175,198.661C619.175,197.679 619.307,196.848 619.571,196.168C619.836,195.488 620.232,194.921 620.761,194.468L635.38,182.115C635.758,181.813 636.268,181.568 636.91,181.379C637.552,181.19 638.251,181.095 639.007,181.095L691.59,181.095C693.403,181.095 694.725,181.511 695.556,182.342C696.387,183.173 696.803,184.495 696.803,186.308L696.803,199.568C696.803,200.55 696.671,201.381 696.406,202.061C696.142,202.741 695.745,203.307 695.216,203.761L685.47,211.807C686.226,212.185 686.774,212.751 687.114,213.507C687.454,214.262 687.624,215.244 687.624,216.453L687.624,228.579C687.624,229.561 687.491,230.392 687.227,231.072C686.963,231.752 686.566,232.319 686.037,232.772L675.951,241.272L691.59,241.272C693.403,241.272 694.725,241.687 695.556,242.518C696.387,243.349 696.803,244.671 696.803,246.485L696.803,259.744C696.803,260.726 696.671,261.557 696.406,262.237C696.142,262.917 695.745,263.484 695.216,263.937L680.484,276.176C680.182,276.478 679.71,276.743 679.067,276.969C678.425,277.196 677.726,277.309 676.971,277.309ZM691.59,263.824C693.025,263.824 694.064,263.502 694.706,262.86C695.349,262.218 695.67,261.179 695.67,259.744L695.67,246.485C695.67,245.049 695.349,244.01 694.706,243.368C694.064,242.726 693.025,242.405 691.59,242.405L660.312,242.405L660.312,232.659L682.411,232.659C683.846,232.659 684.885,232.338 685.527,231.696C686.169,231.053 686.49,230.015 686.49,228.579L686.49,216.453C686.49,215.018 686.169,213.979 685.527,213.337C684.885,212.695 683.846,212.373 682.411,212.373L660.312,212.373L660.312,203.647L691.59,203.647C693.025,203.647 694.064,203.326 694.706,202.684C695.349,202.042 695.67,201.003 695.67,199.568L695.67,186.308C695.67,184.873 695.349,183.834 694.706,183.192C694.064,182.55 693.025,182.229 691.59,182.229L639.007,182.229C637.571,182.229 636.532,182.55 635.89,183.192C635.248,183.834 634.927,184.873 634.927,186.308L634.927,259.744C634.927,261.179 635.248,262.218 635.89,262.86C636.532,263.502 637.571,263.824 639.007,263.824L691.59,263.824ZM685.47,252.491L685.47,253.624L647.279,253.624L647.279,192.428L685.47,192.428L685.47,193.561L648.413,193.561L648.413,222.006L676.291,222.006L676.291,223.139L648.413,223.139L648.413,252.491L685.47,252.491ZM758.452,193.561L733.747,193.561L733.747,226.313L758.452,226.313C763.137,226.313 766.272,225.179 767.858,222.913C769.445,220.646 770.238,217.435 770.238,213.28L770.238,205.347C770.238,201.872 769.275,199.039 767.349,196.848C765.422,194.657 762.457,193.561 758.452,193.561ZM745.987,202.627L754.486,202.627C756.45,202.627 757.772,203.137 758.452,204.157C759.132,205.177 759.472,206.443 759.472,207.954L759.472,211.807C759.472,213.318 759.132,214.583 758.452,215.603C757.772,216.623 756.45,217.133 754.486,217.133L745.987,217.133L745.987,202.627ZM733.747,253.624L732.614,253.624L732.614,192.428L758.452,192.428C762.834,192.428 766.083,193.656 768.198,196.111C770.314,198.567 771.372,201.645 771.372,205.347L771.372,213.167C771.372,216.642 770.918,219.494 770.012,221.723C769.105,223.952 767.292,225.482 764.572,226.313L765.819,226.313C770.427,226.313 773.865,227.351 776.131,229.429C778.398,231.507 779.531,234.51 779.531,238.438L779.531,253.624L778.398,253.624L778.398,238.438C778.398,234.737 777.378,231.96 775.338,230.109C773.298,228.258 770.125,227.333 765.819,227.333L733.747,227.333L733.747,253.624ZM741.907,263.824C743.342,263.824 744.381,263.502 745.023,262.86C745.665,262.218 745.987,261.179 745.987,259.744L745.987,237.532L761.852,237.532C763.439,237.532 764.553,237.929 765.195,238.722C765.838,239.515 766.159,240.743 766.159,242.405L766.159,259.744C766.159,261.179 766.48,262.218 767.122,262.86C767.764,263.502 768.803,263.824 770.238,263.824L787.804,263.824C789.239,263.824 790.278,263.502 790.92,262.86C791.563,262.218 791.884,261.179 791.884,259.744L791.884,235.719C791.884,230.959 790.618,227.144 788.087,224.273C785.556,221.402 782.251,219.74 778.171,219.286C780.513,218.304 782.156,216.699 783.101,214.47C784.045,212.241 784.517,209.54 784.517,206.367L784.517,201.154C784.517,195.563 782.912,191.012 779.701,187.498C776.49,183.985 770.654,182.229 762.192,182.229L724.455,182.229C723.019,182.229 721.98,182.55 721.338,183.192C720.696,183.834 720.375,184.873 720.375,186.308L720.375,259.744C720.375,261.179 720.696,262.218 721.338,262.86C721.98,263.502 723.019,263.824 724.455,263.824L741.907,263.824ZM745.533,263.937L730.801,276.176C730.499,276.478 730.026,276.743 729.384,276.969C728.742,277.196 728.043,277.309 727.288,277.309L709.836,277.309C708.022,277.309 706.7,276.894 705.869,276.063C705.038,275.232 704.623,273.91 704.623,272.096L704.623,198.661C704.623,197.679 704.755,196.848 705.019,196.168C705.284,195.488 705.68,194.921 706.209,194.468L720.828,182.115C721.206,181.813 721.716,181.568 722.358,181.379C723,181.19 723.699,181.095 724.455,181.095L762.192,181.095C771.183,181.095 777.34,182.965 780.664,186.705C783.989,190.445 785.651,195.261 785.651,201.154L785.651,206.367C785.651,209.163 785.311,211.599 784.631,213.677C783.951,215.754 782.855,217.435 781.344,218.72L781.231,218.72C784.782,219.702 787.634,221.666 789.787,224.613C791.94,227.559 793.017,231.261 793.017,235.719L793.017,259.744C793.017,260.726 792.885,261.557 792.62,262.237C792.356,262.917 791.959,263.484 791.43,263.937L776.698,276.176C776.396,276.478 775.924,276.743 775.281,276.969C774.639,277.196 773.94,277.309 773.185,277.309L755.619,277.309C753.806,277.309 752.484,276.894 751.653,276.063C750.822,275.232 750.406,273.91 750.406,272.096L750.406,254.757C750.406,253.549 750.18,252.623 749.726,251.981C749.273,251.339 748.442,251.018 747.233,251.018L747.12,251.018L747.12,259.744C747.12,260.726 746.988,261.557 746.723,262.237C746.459,262.917 746.062,263.484 745.533,263.937Z" clip-rule="nonzero"/>
        </clipPath>
        <g clip-path="url(#_clip1)">
            <text x="78.382px" y="263.824px" style="font-family:'BungeeShade-Regular', 'Bungee Shade';font-size:113.326px;">ENGINEER</text>
            <g id="BACKGROUND" transform="matrix(1,0,0,1,42.2725,-70.7976)">
                <g transform="matrix(0.959274,0,0,0.513161,133.341,145.257)">
                    <rect x="39.17" y="201.176" width="297.742" height="194.118" style="fill:rgb(79,255,25);"/>
                </g>
                <g transform="matrix(0.988146,0,0,0.513161,417.826,145.257)">
                    <rect x="39.17" y="201.176" width="297.742" height="194.118" style="fill:rgb(35,221,255);"/>
                </g>
                <g transform="matrix(0.435632,0,0,0.513161,24.146,148.657)">
                    <rect x="39.17" y="201.176" width="297.742" height="194.118" style="fill:rgb(255,226,27);"/>
                </g>
            </g>
        </g>
    </g>
</svg>
