<?xml version="1.0" encoding="UTF-8" standalone="no"?>
<!DOCTYPE svg PUBLIC "-//W3C//DTD SVG 1.1//EN" "http://www.w3.org/Graphics/SVG/1.1/DTD/svg11.dtd">
<svg width="100%" height="100%" viewBox="0 0 722 100" version="1.1" xmlns="http://www.w3.org/2000/svg" xmlns:xlink="http://www.w3.org/1999/xlink" xml:space="preserve" xmlns:serif="http://www.serif.com/" style="fill-rule:evenodd;clip-rule:evenodd;stroke-linejoin:round;stroke-miterlimit:2;">
    <g transform="matrix(1.00005,0,0,0.999863,-81.4466,-179.371)">
        <clipPath id="_clip1">
            <path d="M86.655,277.309C84.842,277.309 83.52,276.894 82.689,276.063C81.858,275.232 81.442,273.91 81.442,272.096L81.442,258.837C81.442,257.855 81.574,257.024 81.839,256.344C82.103,255.664 82.5,255.097 83.029,254.644L94.361,245.125C90.357,243.916 87.203,241.857 84.899,238.948C82.594,236.04 81.442,231.866 81.442,226.426L81.442,214.527C81.442,211.127 82.009,208.105 83.142,205.461C84.275,202.816 85.9,200.588 88.015,198.774L102.747,186.422C104.787,184.76 107.318,183.456 110.34,182.512C113.362,181.568 116.8,181.095 120.653,181.095L152.384,181.095C154.198,181.095 155.52,181.511 156.351,182.342C157.182,183.173 157.597,184.495 157.597,186.308L157.597,199.794C157.597,200.776 157.465,201.608 157.201,202.287C156.936,202.967 156.54,203.534 156.011,203.987L145.811,212.487C150.571,213.545 154.405,215.528 157.314,218.436C160.223,221.345 161.677,225.859 161.677,231.979L161.677,243.878C161.677,247.278 161.11,250.3 159.977,252.944C158.844,255.589 157.182,257.817 154.991,259.63L140.372,271.87C138.256,273.607 135.688,274.948 132.666,275.893C129.644,276.837 126.244,277.309 122.466,277.309L86.655,277.309ZM137.085,263.824C144.338,263.824 150.061,262.105 154.254,258.667C158.447,255.23 160.544,250.3 160.544,243.878L160.544,231.979C160.544,225.633 158.919,221.1 155.671,218.38C152.422,215.66 148.153,213.922 142.865,213.167L125.979,210.9C124.997,210.825 124.242,210.447 123.713,209.767C123.184,209.087 122.92,208.256 122.92,207.274C122.92,206.292 123.184,205.479 123.713,204.837C124.242,204.195 124.997,203.874 125.979,203.874L152.384,203.874C153.82,203.874 154.859,203.553 155.501,202.911C156.143,202.269 156.464,201.23 156.464,199.794L156.464,186.308C156.464,184.873 156.143,183.834 155.501,183.192C154.859,182.55 153.82,182.229 152.384,182.229L120.653,182.229C113.325,182.229 107.583,183.948 103.427,187.385C99.272,190.823 97.194,195.752 97.194,202.174L97.194,214.073C97.194,220.42 98.8,224.953 102.011,227.673C105.222,230.392 109.471,232.13 114.76,232.886L131.759,235.265C132.741,235.341 133.478,235.681 133.969,236.285C134.46,236.89 134.705,237.834 134.705,239.118C134.705,240.025 134.46,240.799 133.969,241.442C133.478,242.084 132.741,242.405 131.759,242.405L101.274,242.405C99.839,242.405 98.8,242.726 98.158,243.368C97.516,244.01 97.194,245.049 97.194,246.485L97.194,259.744C97.194,261.179 97.516,262.218 98.158,262.86C98.8,263.502 99.839,263.824 101.274,263.824L137.085,263.824ZM146.265,192.428L146.265,193.561L121.106,193.561C117.933,193.561 115.402,194.43 113.513,196.168C111.625,197.906 110.68,200.096 110.68,202.741L110.68,212.034C110.68,214.678 111.209,216.529 112.267,217.586C113.325,218.644 114.722,219.324 116.46,219.626L140.372,224.499C142.638,224.953 144.508,225.935 145.981,227.446C147.455,228.957 148.191,231.677 148.191,235.605L148.191,242.178C148.191,245.502 147.058,248.241 144.791,250.394C142.525,252.548 139.465,253.624 135.612,253.624L107.394,253.624L107.394,252.491L135.612,252.491C139.087,252.491 141.864,251.528 143.942,249.601C146.019,247.675 147.058,245.2 147.058,242.178L147.058,235.605C147.058,232.054 146.435,229.618 145.188,228.296C143.942,226.974 142.261,226.086 140.145,225.633L116.233,220.76C114.269,220.382 112.663,219.607 111.417,218.436C110.17,217.265 109.547,215.131 109.547,212.034L109.547,202.741C109.547,199.719 110.605,197.244 112.72,195.318C114.836,193.391 117.631,192.428 121.106,192.428L146.265,192.428ZM233.073,271.87C230.428,274.136 226.726,275.893 221.967,277.139C217.207,278.386 211.087,279.009 203.608,279.009C196.204,279.009 190.141,278.235 185.419,276.686C180.697,275.137 176.995,273.079 174.313,270.51C171.631,267.941 169.78,264.995 168.76,261.67C167.74,258.346 167.23,254.909 167.23,251.358L167.23,216.113C167.23,212.638 167.721,209.408 168.703,206.424C169.685,203.44 171.461,200.89 174.03,198.774L188.762,186.535C191.406,184.269 195.089,182.512 199.811,181.265C204.533,180.019 210.672,179.396 218.227,179.396C225.631,179.396 231.694,180 236.416,181.209C241.138,182.418 244.84,184.099 247.522,186.252C250.204,188.405 252.036,190.974 253.018,193.958C254,196.942 254.491,200.21 254.491,203.761L254.491,242.405C254.491,245.88 254,249.091 253.018,252.038C252.036,254.984 250.26,257.515 247.692,259.63L233.073,271.87ZM253.358,242.405L253.358,203.761C253.358,200.285 252.848,197.131 251.828,194.298C250.808,191.465 248.995,189.028 246.388,186.988C243.782,184.949 240.193,183.362 235.622,182.229C231.052,181.095 225.253,180.529 218.227,180.529C211.201,180.529 205.383,181.095 200.775,182.229C196.166,183.362 192.558,184.949 189.952,186.988C187.345,189.028 185.532,191.465 184.512,194.298C183.492,197.131 182.982,200.285 182.982,203.761L182.982,242.405C182.982,245.88 183.492,249.034 184.512,251.868C185.532,254.701 187.345,257.118 189.952,259.121C192.558,261.123 196.166,262.69 200.775,263.824C205.383,264.957 211.201,265.523 218.227,265.523C225.253,265.523 231.052,264.957 235.622,263.824C240.193,262.69 243.782,261.123 246.388,259.121C248.995,257.118 250.808,254.701 251.828,251.868C252.848,249.034 253.358,245.88 253.358,242.405ZM241.005,239.798C241.005,244.331 239.381,248.015 236.132,250.848C232.884,253.681 226.84,255.097 218,255.097C209.161,255.097 203.154,253.681 199.981,250.848C196.808,248.015 195.222,244.331 195.222,239.798L195.222,206.367C195.222,201.834 196.808,198.151 199.981,195.318C203.154,192.485 209.161,191.068 218,191.068C226.84,191.068 232.884,192.485 236.132,195.318C239.381,198.151 241.005,201.834 241.005,206.367L241.005,239.798ZM196.355,239.798C196.355,244.029 197.866,247.448 200.888,250.054C203.91,252.661 209.614,253.964 218,253.964C226.386,253.964 232.128,252.661 235.226,250.054C238.323,247.448 239.872,244.029 239.872,239.798L239.872,206.367C239.872,202.136 238.323,198.718 235.226,196.111C232.128,193.505 226.386,192.201 218,192.201C209.614,192.201 203.91,193.505 200.888,196.111C197.866,198.718 196.355,202.136 196.355,206.367L196.355,239.798ZM208.707,238.325L208.707,207.84C208.707,206.405 209.274,205.177 210.407,204.157C211.541,203.137 214.147,202.627 218.227,202.627C222.307,202.627 224.913,203.137 226.046,204.157C227.18,205.177 227.746,206.405 227.746,207.84L227.746,238.325C227.746,239.836 227.18,241.102 226.046,242.122C224.913,243.142 222.307,243.651 218.227,243.651C214.147,243.651 211.541,243.142 210.407,242.122C209.274,241.102 208.707,239.836 208.707,238.325ZM209.841,238.325C209.841,239.081 209.992,239.742 210.294,240.308C210.596,240.875 211.163,241.347 211.994,241.725L211.994,220.193C211.994,219.437 211.843,218.776 211.541,218.21C211.238,217.643 210.672,217.209 209.841,216.907L209.841,238.325ZM286.109,277.309L268.544,277.309C266.73,277.309 265.408,276.894 264.577,276.063C263.746,275.232 263.331,273.91 263.331,272.096L263.331,198.661C263.331,197.679 263.463,196.848 263.727,196.168C263.992,195.488 264.388,194.921 264.917,194.468L279.536,182.115C279.914,181.813 280.424,181.568 281.066,181.379C281.708,181.19 282.407,181.095 283.163,181.095L333.706,181.095C335.519,181.095 336.841,181.511 337.673,182.342C338.504,183.173 338.919,184.495 338.919,186.308L338.919,199.794C338.919,200.776 338.787,201.608 338.522,202.287C338.258,202.967 337.861,203.534 337.333,203.987L324.64,214.527C326.378,214.527 327.662,214.942 328.493,215.773C329.324,216.604 329.74,217.926 329.74,219.74L329.74,233.339C329.74,234.321 329.607,235.152 329.343,235.832C329.079,236.512 328.682,237.079 328.153,237.532L313.421,249.771C313.119,250.073 312.646,250.338 312.004,250.564C311.362,250.791 310.663,250.904 309.908,250.904L305.941,250.904L305.941,259.744C305.941,260.726 305.809,261.557 305.545,262.237C305.28,262.917 304.883,263.484 304.355,263.937L289.622,276.176C289.32,276.478 288.848,276.743 288.206,276.969C287.563,277.196 286.865,277.309 286.109,277.309ZM300.728,263.824C302.164,263.824 303.202,263.502 303.845,262.86C304.487,262.218 304.808,261.179 304.808,259.744L304.808,237.419L324.527,237.419C325.962,237.419 327.001,237.097 327.643,236.455C328.285,235.813 328.606,234.774 328.606,233.339L328.606,219.74C328.606,218.304 328.285,217.265 327.643,216.623C327.001,215.981 325.962,215.66 324.527,215.66L304.808,215.66L304.808,203.874L333.706,203.874C335.142,203.874 336.18,203.553 336.823,202.911C337.465,202.269 337.786,201.23 337.786,199.794L337.786,186.308C337.786,184.873 337.465,183.834 336.823,183.192C336.18,182.55 335.142,182.229 333.706,182.229L283.163,182.229C281.727,182.229 280.688,182.55 280.046,183.192C279.404,183.834 279.083,184.873 279.083,186.308L279.083,259.744C279.083,261.179 279.404,262.218 280.046,262.86C280.688,263.502 281.727,263.824 283.163,263.824L300.728,263.824ZM291.435,253.624L291.435,192.428L327.586,192.428L327.586,193.561L292.569,193.561L292.569,225.973L318.407,225.973L318.407,227.106L292.569,227.106L292.569,253.624L291.435,253.624ZM384.363,277.309L366.004,277.309C364.191,277.309 362.869,276.894 362.038,276.063C361.207,275.232 360.791,273.91 360.791,272.096L360.791,217.586L345.265,217.586C343.452,217.586 342.13,217.171 341.299,216.34C340.468,215.509 340.052,214.187 340.052,212.373L340.052,198.661C340.052,197.679 340.185,196.848 340.449,196.168C340.713,195.488 341.11,194.921 341.639,194.468L356.258,182.115C356.636,181.813 357.146,181.568 357.788,181.379C358.43,181.19 359.129,181.095 359.884,181.095L419.721,181.095C421.534,181.095 422.856,181.511 423.687,182.342C424.518,183.173 424.934,184.495 424.934,186.308L424.934,200.021C424.934,201.003 424.801,201.834 424.537,202.514C424.273,203.194 423.876,203.761 423.347,204.214L408.615,216.453C408.312,216.755 407.84,217.02 407.198,217.247C406.556,217.473 405.857,217.586 405.102,217.586L404.195,217.586L404.195,259.744C404.195,260.726 404.063,261.557 403.798,262.237C403.534,262.917 403.137,263.484 402.608,263.937L387.876,276.176C387.574,276.478 387.102,276.743 386.459,276.969C385.817,277.196 385.118,277.309 384.363,277.309ZM398.982,263.824C400.417,263.824 401.456,263.502 402.098,262.86C402.741,262.218 403.062,261.179 403.062,259.744L403.062,204.101L419.721,204.101C421.156,204.101 422.195,203.78 422.837,203.137C423.479,202.495 423.8,201.456 423.8,200.021L423.8,186.308C423.8,184.873 423.479,183.834 422.837,183.192C422.195,182.55 421.156,182.229 419.721,182.229L359.884,182.229C358.449,182.229 357.41,182.55 356.768,183.192C356.126,183.834 355.805,184.873 355.805,186.308L355.805,200.021C355.805,201.456 356.126,202.495 356.768,203.137C357.41,203.78 358.449,204.101 359.884,204.101L376.543,204.101L376.543,259.744C376.543,261.179 376.864,262.218 377.507,262.86C378.149,263.502 379.188,263.824 380.623,263.824L398.982,263.824ZM389.236,253.624L389.236,193.561L366.004,193.561L366.004,192.428L413.601,192.428L413.601,193.561L390.369,193.561L390.369,253.624L389.236,253.624ZM486.923,224.726C488.132,224.726 489.095,225.085 489.813,225.803C490.531,226.52 491.418,227.937 492.476,230.052L502.902,250.904C503.28,251.66 503.752,252.113 504.319,252.264C504.885,252.415 505.433,252.491 505.962,252.491L506.528,252.491C507.133,252.491 507.699,252.245 508.228,251.754C508.757,251.263 509.059,250.715 509.135,250.111L511.968,237.192C512.27,235.756 512.44,233.905 512.478,231.639C512.516,229.372 512.535,227.408 512.535,225.746L512.535,192.428L513.668,192.428L513.668,225.859C513.668,227.521 513.649,229.486 513.611,231.752C513.574,234.019 513.404,235.87 513.101,237.305L510.268,250.111C509.966,251.32 509.494,252.208 508.852,252.774C508.209,253.341 507.435,253.624 506.528,253.624L505.735,253.624C505.055,253.624 504.356,253.492 503.639,253.228C502.921,252.963 502.373,252.453 501.995,251.698L491.569,230.619C490.587,228.655 489.794,227.37 489.19,226.766C488.585,226.161 487.83,225.859 486.923,225.859L484.09,225.859C483.183,225.859 482.428,226.161 481.823,226.766C481.219,227.37 480.426,228.655 479.444,230.619L469.017,251.698C468.64,252.453 468.092,252.963 467.374,253.228C466.657,253.492 465.958,253.624 465.278,253.624L464.484,253.624C463.578,253.624 462.803,253.341 462.161,252.774C461.519,252.208 461.047,251.32 460.745,250.111L457.912,237.305C457.609,235.87 457.439,234.019 457.402,231.752C457.364,229.486 457.345,227.521 457.345,225.859L457.345,192.428L458.478,192.428L458.478,225.746C458.478,227.408 458.497,229.372 458.535,231.639C458.573,233.905 458.743,235.756 459.045,237.192L461.878,250.111C461.954,250.715 462.256,251.263 462.785,251.754C463.313,252.245 463.88,252.491 464.484,252.491L465.051,252.491C465.58,252.491 466.128,252.415 466.694,252.264C467.261,252.113 467.733,251.66 468.111,250.904L478.537,230.052C479.595,227.937 480.482,226.52 481.2,225.803C481.918,225.085 482.881,224.726 484.09,224.726L486.923,224.726ZM504.715,182.229C503.28,182.229 502.241,182.55 501.599,183.192C500.957,183.834 500.635,184.873 500.635,186.308L500.635,228.012L494.063,213.733C493.458,212.449 492.665,211.542 491.683,211.014C490.701,210.485 489.492,210.22 488.056,210.22L483.297,210.22C481.861,210.22 480.652,210.485 479.67,211.014C478.688,211.542 477.895,212.449 477.29,213.733L470.717,228.012L470.717,186.308C470.717,184.873 470.396,183.834 469.754,183.192C469.112,182.55 468.073,182.229 466.638,182.229L449.185,182.229C447.75,182.229 446.711,182.55 446.069,183.192C445.427,183.834 445.106,184.873 445.106,186.308L445.106,230.052C445.106,232.47 445.2,234.718 445.389,236.795C445.578,238.873 446.163,241.309 447.146,244.105L452.812,259.744C453.19,260.953 453.813,261.935 454.682,262.69C455.551,263.446 456.589,263.824 457.798,263.824L472.757,263.824C473.966,263.824 474.986,263.54 475.817,262.974C476.648,262.407 477.215,261.557 477.517,260.424L482.843,241.952C483.07,241.196 483.353,240.686 483.693,240.422C484.033,240.157 484.43,240.025 484.883,240.025L485.903,240.025C486.356,240.025 486.753,240.157 487.093,240.422C487.433,240.686 487.716,241.196 487.943,241.952L493.156,260.424C493.458,261.633 494.1,262.501 495.083,263.03C496.065,263.559 497.16,263.824 498.369,263.824L513.441,263.824C514.65,263.824 515.613,263.427 516.331,262.634C517.049,261.84 517.597,260.877 517.974,259.744L523.641,244.331C524.623,241.536 525.208,239.1 525.397,237.022C525.586,234.944 525.681,232.697 525.681,230.279L525.681,186.308C525.681,184.873 525.359,183.834 524.717,183.192C524.075,182.55 523.036,182.229 521.601,182.229L504.715,182.229ZM462.105,275.949C461.576,276.327 460.971,276.648 460.291,276.913C459.611,277.177 458.894,277.309 458.138,277.309L443.179,277.309C441.744,277.309 440.497,276.856 439.439,275.949C438.382,275.043 437.626,273.872 437.173,272.436L431.507,256.797C430.449,254.002 429.826,251.528 429.637,249.374C429.448,247.221 429.353,244.898 429.353,242.405L429.353,198.661C429.353,197.679 429.486,196.848 429.75,196.168C430.014,195.488 430.411,194.921 430.94,194.468L445.559,182.115C445.937,181.813 446.447,181.568 447.089,181.379C447.731,181.19 448.43,181.095 449.185,181.095L466.638,181.095C468.451,181.095 469.773,181.511 470.604,182.342C471.435,183.173 471.851,184.495 471.851,186.308L471.851,215.887L478.197,210.56C478.801,210.031 479.538,209.654 480.407,209.427C481.276,209.2 482.239,209.087 483.297,209.087L484.883,209.087L484.883,198.661C484.883,197.679 484.996,196.848 485.223,196.168C485.45,195.488 485.79,194.959 486.243,194.581L486.356,194.468L501.089,182.115C501.467,181.813 501.958,181.568 502.562,181.379C503.166,181.19 503.884,181.095 504.715,181.095L521.601,181.095C523.414,181.095 524.736,181.511 525.567,182.342C526.398,183.173 526.814,184.495 526.814,186.308L526.814,230.279C526.814,232.772 526.719,235.095 526.531,237.249C526.342,239.402 525.718,241.876 524.661,244.671L518.994,260.084C518.768,260.839 518.465,261.519 518.088,262.124C517.71,262.728 517.257,263.295 516.728,263.824L502.109,275.949C501.655,276.403 501.164,276.743 500.635,276.969C500.107,277.196 499.502,277.309 498.822,277.309L483.75,277.309C482.239,277.309 480.917,276.969 479.783,276.289C478.65,275.609 477.857,274.552 477.404,273.116L475.137,265.07L462.105,275.949ZM563.078,229.486L563.078,232.999L607.275,232.999L607.275,229.486C607.275,227.446 607.105,225.557 606.765,223.819C606.425,222.082 605.991,220.457 605.462,218.946L597.643,200.474C596.812,198.51 595.943,196.867 595.036,195.545C594.13,194.222 592.619,193.561 590.503,193.561L579.397,193.561C577.131,193.561 575.544,194.222 574.637,195.545C573.731,196.867 572.9,198.472 572.144,200.361L564.891,218.946C564.363,220.457 563.928,222.082 563.588,223.819C563.248,225.557 563.078,227.446 563.078,229.486ZM581.21,206.027C581.513,205.347 581.834,204.856 582.174,204.554C582.514,204.252 582.91,204.101 583.364,204.101L586.197,204.101C586.65,204.101 587.047,204.252 587.387,204.554C587.727,204.856 588.048,205.347 588.35,206.027L593.676,223.253L575.884,223.253L581.21,206.027ZM607.275,253.624L607.275,234.132L563.078,234.132L563.078,253.624L561.945,253.624L561.945,229.486C561.945,227.37 562.115,225.425 562.455,223.649C562.795,221.874 563.267,220.155 563.871,218.493L571.124,199.908C571.955,197.792 572.9,196.017 573.957,194.581C575.015,193.146 576.828,192.428 579.397,192.428L590.503,192.428C592.996,192.428 594.753,193.146 595.773,194.581C596.793,196.017 597.756,197.83 598.663,200.021L606.482,218.493C607.086,220.155 607.559,221.874 607.899,223.649C608.239,225.425 608.409,227.37 608.409,229.486L608.409,253.624L607.275,253.624ZM574.751,259.744L574.751,243.878L594.809,243.878L594.809,259.744C594.809,261.179 595.168,262.218 595.886,262.86C596.604,263.502 597.718,263.824 599.229,263.824L616.341,263.824C617.777,263.824 618.816,263.502 619.458,262.86C620.1,262.218 620.421,261.179 620.421,259.744L620.421,229.826C620.421,227.559 620.062,224.953 619.345,222.006C618.627,219.06 617.512,215.622 616.001,211.694L606.142,185.968C605.689,184.684 604.99,183.74 604.046,183.135C603.101,182.531 601.911,182.229 600.476,182.229L569.991,182.229C568.48,182.229 567.252,182.531 566.308,183.135C565.364,183.74 564.665,184.684 564.211,185.968L554.352,211.694C552.841,215.622 551.727,219.06 551.009,222.006C550.291,224.953 549.932,227.559 549.932,229.826L549.932,259.744C549.932,261.179 550.253,262.218 550.896,262.86C551.538,263.502 552.577,263.824 554.012,263.824L570.671,263.824C572.106,263.824 573.145,263.502 573.788,262.86C574.43,262.218 574.751,261.179 574.751,259.744ZM559.565,276.176C559.263,276.478 558.791,276.743 558.148,276.969C557.506,277.196 556.807,277.309 556.052,277.309L539.393,277.309C537.58,277.309 536.258,276.894 535.427,276.063C534.596,275.232 534.18,273.91 534.18,272.096L534.18,242.178C534.18,239.836 534.539,237.173 535.257,234.189C535.974,231.205 537.127,227.673 538.713,223.593L548.459,197.981C548.686,197.301 548.969,196.716 549.309,196.225C549.649,195.733 550.008,195.299 550.386,194.921L550.499,194.808L565.005,182.682C565.609,182.153 566.327,181.757 567.158,181.492C567.989,181.228 568.933,181.095 569.991,181.095L600.476,181.095C602.213,181.095 603.63,181.454 604.726,182.172C605.821,182.89 606.633,184.004 607.162,185.515L617.021,211.24C618.608,215.32 619.76,218.852 620.478,221.836C621.196,224.82 621.554,227.484 621.554,229.826L621.554,259.744C621.554,260.726 621.422,261.557 621.158,262.237C620.893,262.917 620.497,263.484 619.968,263.937L605.236,276.176C604.933,276.478 604.461,276.743 603.819,276.969C603.177,277.196 602.478,277.309 601.722,277.309L584.61,277.309C582.721,277.309 581.324,276.875 580.417,276.006C579.51,275.137 579.057,273.834 579.057,272.096L579.057,257.364L575.884,257.364L575.884,259.744C575.884,260.726 575.752,261.557 575.487,262.237C575.223,262.917 574.826,263.484 574.297,263.937L559.565,276.176ZM683.771,193.561L659.065,193.561L659.065,226.313L683.771,226.313C688.455,226.313 691.59,225.179 693.177,222.913C694.763,220.646 695.556,217.435 695.556,213.28L695.556,205.347C695.556,201.872 694.593,199.039 692.667,196.848C690.74,194.657 687.775,193.561 683.771,193.561ZM671.305,202.627L679.804,202.627C681.768,202.627 683.091,203.137 683.771,204.157C684.45,205.177 684.79,206.443 684.79,207.954L684.79,211.807C684.79,213.318 684.45,214.583 683.771,215.603C683.091,216.623 681.768,217.133 679.804,217.133L671.305,217.133L671.305,202.627ZM659.065,253.624L657.932,253.624L657.932,192.428L683.771,192.428C688.152,192.428 691.401,193.656 693.517,196.111C695.632,198.567 696.69,201.645 696.69,205.347L696.69,213.167C696.69,216.642 696.236,219.494 695.33,221.723C694.423,223.952 692.61,225.482 689.89,226.313L691.137,226.313C695.745,226.313 699.183,227.351 701.449,229.429C703.716,231.507 704.849,234.51 704.849,238.438L704.849,253.624L703.716,253.624L703.716,238.438C703.716,234.737 702.696,231.96 700.656,230.109C698.616,228.258 695.443,227.333 691.137,227.333L659.065,227.333L659.065,253.624ZM667.225,263.824C668.66,263.824 669.699,263.502 670.341,262.86C670.984,262.218 671.305,261.179 671.305,259.744L671.305,237.532L687.17,237.532C688.757,237.532 689.871,237.929 690.513,238.722C691.156,239.515 691.477,240.743 691.477,242.405L691.477,259.744C691.477,261.179 691.798,262.218 692.44,262.86C693.082,263.502 694.121,263.824 695.556,263.824L713.122,263.824C714.557,263.824 715.596,263.502 716.238,262.86C716.881,262.218 717.202,261.179 717.202,259.744L717.202,235.719C717.202,230.959 715.936,227.144 713.405,224.273C710.874,221.402 707.569,219.74 703.489,219.286C705.831,218.304 707.475,216.699 708.419,214.47C709.363,212.241 709.836,209.54 709.836,206.367L709.836,201.154C709.836,195.563 708.23,191.012 705.019,187.498C701.808,183.985 695.972,182.229 687.51,182.229L649.773,182.229C648.337,182.229 647.298,182.55 646.656,183.192C646.014,183.834 645.693,184.873 645.693,186.308L645.693,259.744C645.693,261.179 646.014,262.218 646.656,262.86C647.298,263.502 648.337,263.824 649.773,263.824L667.225,263.824ZM670.851,263.937L656.119,276.176C655.817,276.478 655.345,276.743 654.702,276.969C654.06,277.196 653.361,277.309 652.606,277.309L635.154,277.309C633.34,277.309 632.018,276.894 631.187,276.063C630.356,275.232 629.941,273.91 629.941,272.096L629.941,198.661C629.941,197.679 630.073,196.848 630.337,196.168C630.602,195.488 630.998,194.921 631.527,194.468L646.146,182.115C646.524,181.813 647.034,181.568 647.676,181.379C648.318,181.19 649.017,181.095 649.773,181.095L687.51,181.095C696.501,181.095 702.658,182.965 705.982,186.705C709.307,190.445 710.969,195.261 710.969,201.154L710.969,206.367C710.969,209.163 710.629,211.599 709.949,213.677C709.269,215.754 708.173,217.435 706.662,218.72L706.549,218.72C710.1,219.702 712.952,221.666 715.105,224.613C717.258,227.559 718.335,231.261 718.335,235.719L718.335,259.744C718.335,260.726 718.203,261.557 717.938,262.237C717.674,262.917 717.277,263.484 716.748,263.937L702.016,276.176C701.714,276.478 701.242,276.743 700.599,276.969C699.957,277.196 699.258,277.309 698.503,277.309L680.937,277.309C679.124,277.309 677.802,276.894 676.971,276.063C676.14,275.232 675.724,273.91 675.724,272.096L675.724,254.757C675.724,253.549 675.498,252.623 675.044,251.981C674.591,251.339 673.76,251.018 672.551,251.018L672.438,251.018L672.438,259.744C672.438,260.726 672.306,261.557 672.041,262.237C671.777,262.917 671.38,263.484 670.851,263.937ZM783.271,277.309L730.688,277.309C728.874,277.309 727.552,276.894 726.721,276.063C725.89,275.232 725.475,273.91 725.475,272.096L725.475,198.661C725.475,197.679 725.607,196.848 725.871,196.168C726.136,195.488 726.532,194.921 727.061,194.468L741.68,182.115C742.058,181.813 742.568,181.568 743.21,181.379C743.852,181.19 744.551,181.095 745.307,181.095L797.89,181.095C799.703,181.095 801.025,181.511 801.856,182.342C802.687,183.173 803.103,184.495 803.103,186.308L803.103,199.568C803.103,200.55 802.971,201.381 802.706,202.061C802.442,202.741 802.045,203.307 801.516,203.761L791.77,211.807C792.526,212.185 793.074,212.751 793.414,213.507C793.754,214.262 793.924,215.244 793.924,216.453L793.924,228.579C793.924,229.561 793.791,230.392 793.527,231.072C793.262,231.752 792.866,232.319 792.337,232.772L782.251,241.272L797.89,241.272C799.703,241.272 801.025,241.687 801.856,242.518C802.687,243.349 803.103,244.671 803.103,246.485L803.103,259.744C803.103,260.726 802.971,261.557 802.706,262.237C802.442,262.917 802.045,263.484 801.516,263.937L786.784,276.176C786.482,276.478 786.01,276.743 785.367,276.969C784.725,277.196 784.026,277.309 783.271,277.309ZM797.89,263.824C799.325,263.824 800.364,263.502 801.006,262.86C801.649,262.218 801.97,261.179 801.97,259.744L801.97,246.485C801.97,245.049 801.649,244.01 801.006,243.368C800.364,242.726 799.325,242.405 797.89,242.405L766.612,242.405L766.612,232.659L788.71,232.659C790.146,232.659 791.185,232.338 791.827,231.696C792.469,231.053 792.79,230.015 792.79,228.579L792.79,216.453C792.79,215.018 792.469,213.979 791.827,213.337C791.185,212.695 790.146,212.373 788.71,212.373L766.612,212.373L766.612,203.647L797.89,203.647C799.325,203.647 800.364,203.326 801.006,202.684C801.649,202.042 801.97,201.003 801.97,199.568L801.97,186.308C801.97,184.873 801.649,183.834 801.006,183.192C800.364,182.55 799.325,182.229 797.89,182.229L745.307,182.229C743.871,182.229 742.832,182.55 742.19,183.192C741.548,183.834 741.227,184.873 741.227,186.308L741.227,259.744C741.227,261.179 741.548,262.218 742.19,262.86C742.832,263.502 743.871,263.824 745.307,263.824L797.89,263.824ZM791.77,252.491L791.77,253.624L753.579,253.624L753.579,192.428L791.77,192.428L791.77,193.561L754.713,193.561L754.713,222.006L782.591,222.006L782.591,223.139L754.713,223.139L754.713,252.491L791.77,252.491Z" clip-rule="nonzero"/>
        </clipPath>
        <g clip-path="url(#_clip1)">
            <text x="78.382px" y="263.824px" style="font-family:'BungeeShade-Regular', 'Bungee Shade';font-size:113.326px;">SOFTWARE</text>
            <g id="BACKGROUND" transform="matrix(1,0,0,1,42.2725,-70.7976)">
                <g transform="matrix(1,0,0,0.513161,0,146.957)">
                    <rect x="39.17" y="201.176" width="297.742" height="194.118" style="fill:rgb(255,40,40);"/>
                </g>
                <g transform="matrix(0.988146,0,0,0.513161,298.206,146.957)">
                    <rect x="39.17" y="201.176" width="297.742" height="194.118" style="fill:rgb(255,132,0);"/>
                </g>
                <g transform="matrix(0.435632,0,0,0.513161,614.061,146.957)">
                    <rect x="39.17" y="201.176" width="297.742" height="194.118" style="fill:rgb(255,226,27);"/>
                </g>
            </g>
        </g>
    </g>
</svg>
